HIERARCHY
ROOT mixamorig:Hips
{
	OFFSET 0.000000 201.639420 0.000000
	CHANNELS 6 Xposition Yposition Zposition Xrotation Yrotation Zrotation
	JOINT mixamorig:Spine
	{
		OFFSET 0.006200 19.524994 -2.481800
		CHANNELS 3 Xrotation Yrotation Zrotation
		JOINT mixamorig:Spine1
		{
			OFFSET -0.000900 22.835007 -2.825400
			CHANNELS 3 Xrotation Yrotation Zrotation
			JOINT mixamorig:Spine2
			{
				OFFSET -0.020600 26.552490 -3.193300
				CHANNELS 3 Xrotation Yrotation Zrotation
				JOINT mixamorig:Neck
				{
					OFFSET -0.060000 30.701813 1.352200
					CHANNELS 3 Xrotation Yrotation Zrotation
					JOINT mixamorig:Head
					{
						OFFSET -0.087200 22.547607 3.670900
						CHANNELS 3 Xrotation Yrotation Zrotation
						JOINT mixamorig:HeadTop_End
						{
							OFFSET -0.830600 40.355194 7.893500
							CHANNELS 3 Xrotation Yrotation Zrotation
							End Site
							{
								OFFSET 0.000000 30.592346 0.000000
							}
						}
						JOINT mixamorig:RightEye
						{
							OFFSET -6.302100 18.118591 16.197100
							CHANNELS 3 Xrotation Yrotation Zrotation
							End Site
							{
								OFFSET 0.000000 30.592346 0.000000
							}
						}
						JOINT mixamorig:LeftEye
						{
							OFFSET 6.741500 18.382690 16.401899
							CHANNELS 3 Xrotation Yrotation Zrotation
							End Site
							{
								OFFSET 0.000000 30.592346 0.000000
							}
						}
					}
				}
				JOINT mixamorig:LeftShoulder
				{
					OFFSET 11.924900 18.230499 1.425400
					CHANNELS 3 Xrotation Yrotation Zrotation
					JOINT mixamorig:LeftArm
					{
						OFFSET 25.435989 -0.697632 -5.229300
						CHANNELS 3 Xrotation Yrotation Zrotation
						JOINT mixamorig:LeftForeArm
						{
							OFFSET 54.684776 0.000000 0.000000
							CHANNELS 3 Xrotation Yrotation Zrotation
							JOINT mixamorig:LeftHand
							{
								OFFSET 55.098175 0.000000 0.000000
								CHANNELS 3 Xrotation Yrotation Zrotation
								JOINT mixamorig:LeftHandMiddle1
								{
									OFFSET 23.369751 0.000000 0.000000
									CHANNELS 3 Xrotation Yrotation Zrotation
									JOINT mixamorig:LeftHandMiddle2
									{
										OFFSET 6.378677 0.000000 0.000000
										CHANNELS 3 Xrotation Yrotation Zrotation
										JOINT mixamorig:LeftHandMiddle3
										{
											OFFSET 6.148331 0.000000 0.000000
											CHANNELS 3 Xrotation Yrotation Zrotation
											JOINT mixamorig:LeftHandMiddle4
											{
												OFFSET 6.582504 0.000000 0.000000
												CHANNELS 3 Xrotation Yrotation Zrotation
												End Site
												{
													OFFSET -1.168900 6.395691 1.028606
												}
											}
										}
									}
								}
								JOINT mixamorig:LeftHandThumb1
								{
									OFFSET 7.235672 -3.848206 5.434273
									CHANNELS 3 Xrotation Yrotation Zrotation
									JOINT mixamorig:LeftHandThumb2
									{
										OFFSET 6.568451 -3.792297 3.792300
										CHANNELS 3 Xrotation Yrotation Zrotation
										JOINT mixamorig:LeftHandThumb3
										{
											OFFSET 6.063080 -3.500519 3.500518
											CHANNELS 3 Xrotation Yrotation Zrotation
											JOINT mixamorig:LeftHandThumb4
											{
												OFFSET 4.793182 -2.767334 2.767349
												CHANNELS 3 Xrotation Yrotation Zrotation
												End Site
												{
													OFFSET 0.101639 6.054260 1.275483
												}
											}
										}
									}
								}
								JOINT mixamorig:LeftHandIndex1
								{
									OFFSET 23.101074 -0.309540 4.992809
									CHANNELS 3 Xrotation Yrotation Zrotation
									JOINT mixamorig:LeftHandIndex2
									{
										OFFSET 6.226883 0.000000 0.000000
										CHANNELS 3 Xrotation Yrotation Zrotation
										JOINT mixamorig:LeftHandIndex3
										{
											OFFSET 6.094330 0.000000 0.000000
											CHANNELS 3 Xrotation Yrotation Zrotation
											JOINT mixamorig:LeftHandIndex4
											{
												OFFSET 5.482605 0.000000 0.000000
												CHANNELS 3 Xrotation Yrotation Zrotation
												End Site
												{
													OFFSET -1.427902 5.233032 0.797164
												}
											}
										}
									}
								}
								JOINT mixamorig:LeftHandRing1
								{
									OFFSET 22.299240 0.021149 -3.964172
									CHANNELS 3 Xrotation Yrotation Zrotation
									JOINT mixamorig:LeftHandRing2
									{
										OFFSET 6.321869 0.000000 0.000000
										CHANNELS 3 Xrotation Yrotation Zrotation
										JOINT mixamorig:LeftHandRing3
										{
											OFFSET 5.899796 0.000000 0.000000
											CHANNELS 3 Xrotation Yrotation Zrotation
											JOINT mixamorig:LeftHandRing4
											{
												OFFSET 6.517899 0.000000 0.000000
												CHANNELS 3 Xrotation Yrotation Zrotation
												End Site
												{
													OFFSET -1.637299 6.232208 0.980890
												}
											}
										}
									}
								}
								JOINT mixamorig:LeftHandPinky1
								{
									OFFSET 20.463791 -0.302338 -8.562233
									CHANNELS 3 Xrotation Yrotation Zrotation
									JOINT mixamorig:LeftHandPinky2
									{
										OFFSET 6.908646 0.000000 0.000000
										CHANNELS 3 Xrotation Yrotation Zrotation
										JOINT mixamorig:LeftHandPinky3
										{
											OFFSET 4.622849 0.000000 0.000000
											CHANNELS 3 Xrotation Yrotation Zrotation
											JOINT mixamorig:LeftHandPinky4
											{
												OFFSET 5.216080 0.000000 0.000000
												CHANNELS 3 Xrotation Yrotation Zrotation
												End Site
												{
													OFFSET -0.606308 5.116241 0.814926
												}
											}
										}
									}
								}
							}
						}
					}
				}
				JOINT mixamorig:RightShoulder
				{
					OFFSET -12.001300 18.284088 1.348900
					CHANNELS 3 Xrotation Yrotation Zrotation
					JOINT mixamorig:RightArm
					{
						OFFSET -25.308500 -0.751312 -5.164599
						CHANNELS 3 Xrotation Yrotation Zrotation
						JOINT mixamorig:RightForeArm
						{
							OFFSET -54.684429 0.000000 0.000000
							CHANNELS 3 Xrotation Yrotation Zrotation
							JOINT mixamorig:RightHand
							{
								OFFSET -55.150291 0.000000 0.000000
								CHANNELS 3 Xrotation Yrotation Zrotation
								JOINT mixamorig:RightHandMiddle1
								{
									OFFSET -23.317566 0.000000 0.000000
									CHANNELS 3 Xrotation Yrotation Zrotation
									JOINT mixamorig:RightHandMiddle2
									{
										OFFSET -6.378403 0.000000 0.000000
										CHANNELS 3 Xrotation Yrotation Zrotation
										JOINT mixamorig:RightHandMiddle3
										{
											OFFSET -6.148193 0.000000 0.000000
											CHANNELS 3 Xrotation Yrotation Zrotation
											JOINT mixamorig:RightHandMiddle4
											{
												OFFSET -6.583389 0.000000 0.000000
												CHANNELS 3 Xrotation Yrotation Zrotation
												End Site
												{
													OFFSET 1.171692 6.395905 1.029786
												}
											}
										}
									}
								}
								JOINT mixamorig:RightHandThumb1
								{
									OFFSET -7.190521 -3.860474 5.435846
									CHANNELS 3 Xrotation Yrotation Zrotation
									JOINT mixamorig:RightHandThumb2
									{
										OFFSET -6.567429 -3.791718 3.791708
										CHANNELS 3 Xrotation Yrotation Zrotation
										JOINT mixamorig:RightHandThumb3
										{
											OFFSET -6.062469 -3.500153 3.500166
											CHANNELS 3 Xrotation Yrotation Zrotation
											JOINT mixamorig:RightHandThumb4
											{
												OFFSET -4.792618 -2.767029 2.767022
												CHANNELS 3 Xrotation Yrotation Zrotation
												End Site
												{
													OFFSET -0.100327 6.053253 1.276754
												}
											}
										}
									}
								}
								JOINT mixamorig:RightHandIndex1
								{
									OFFSET -23.048981 -0.310791 4.992554
									CHANNELS 3 Xrotation Yrotation Zrotation
									JOINT mixamorig:RightHandIndex2
									{
										OFFSET -6.227539 0.000000 0.000000
										CHANNELS 3 Xrotation Yrotation Zrotation
										JOINT mixamorig:RightHandIndex3
										{
											OFFSET -6.095047 0.000000 0.000000
											CHANNELS 3 Xrotation Yrotation Zrotation
											JOINT mixamorig:RightHandIndex4
											{
												OFFSET -5.484772 0.000000 0.000000
												CHANNELS 3 Xrotation Yrotation Zrotation
												End Site
												{
													OFFSET 1.420593 5.237305 0.797056
												}
											}
										}
									}
								}
								JOINT mixamorig:RightHandRing1
								{
									OFFSET -22.246323 0.020569 -3.963762
									CHANNELS 3 Xrotation Yrotation Zrotation
									JOINT mixamorig:RightHandRing2
									{
										OFFSET -6.322128 0.000000 0.000000
										CHANNELS 3 Xrotation Yrotation Zrotation
										JOINT mixamorig:RightHandRing3
										{
											OFFSET -5.900024 0.000000 0.000000
											CHANNELS 3 Xrotation Yrotation Zrotation
											JOINT mixamorig:RightHandRing4
											{
												OFFSET -6.518356 0.000000 0.000000
												CHANNELS 3 Xrotation Yrotation Zrotation
												End Site
												{
													OFFSET 1.636398 6.232697 0.982186
												}
											}
										}
									}
								}
								JOINT mixamorig:RightHandPinky1
								{
									OFFSET -20.411011 -0.303314 -8.561701
									CHANNELS 3 Xrotation Yrotation Zrotation
									JOINT mixamorig:RightHandPinky2
									{
										OFFSET -6.907349 0.000000 0.000000
										CHANNELS 3 Xrotation Yrotation Zrotation
										JOINT mixamorig:RightHandPinky3
										{
											OFFSET -4.623840 0.000000 0.000000
											CHANNELS 3 Xrotation Yrotation Zrotation
											JOINT mixamorig:RightHandPinky4
											{
												OFFSET -5.218353 0.000000 0.000000
												CHANNELS 3 Xrotation Yrotation Zrotation
												End Site
												{
													OFFSET 0.602097 5.118835 0.816273
												}
											}
										}
									}
								}
							}
						}
					}
				}
			}
		}
	}
	JOINT mixamorig:LeftUpLeg
	{
		OFFSET 18.168400 -13.561905 -0.039000
		CHANNELS 3 Xrotation Yrotation Zrotation
		JOINT mixamorig:LeftLeg
		{
			OFFSET 0.577358 -80.825211 -3.695000
			CHANNELS 3 Xrotation Yrotation Zrotation
			JOINT mixamorig:LeftFoot
			{
				OFFSET -0.577356 -83.370262 -6.520700
				CHANNELS 3 Xrotation Yrotation Zrotation
				JOINT mixamorig:LeftToeBase
				{
					OFFSET 0.750401 -20.798306 25.135401
					CHANNELS 3 Xrotation Yrotation Zrotation
					JOINT mixamorig:LeftToe_End
					{
						OFFSET -0.000500 0.001200 19.917799
						CHANNELS 3 Xrotation Yrotation Zrotation
						End Site
						{
							OFFSET 0.000000 19.917805 0.000000
						}
					}
				}
			}
		}
	}
	JOINT mixamorig:RightUpLeg
	{
		OFFSET -18.162500 -13.585098 -0.041000
		CHANNELS 3 Xrotation Yrotation Zrotation
		JOINT mixamorig:RightLeg
		{
			OFFSET -0.595024 -80.945297 -3.631900
			CHANNELS 3 Xrotation Yrotation Zrotation
			JOINT mixamorig:RightFoot
			{
				OFFSET 0.595024 -83.218193 -6.561200
				CHANNELS 3 Xrotation Yrotation Zrotation
				JOINT mixamorig:RightToeBase
				{
					OFFSET -0.753601 -20.807106 25.115000
					CHANNELS 3 Xrotation Yrotation Zrotation
					JOINT mixamorig:RightToe_End
					{
						OFFSET 0.000299 0.001700 19.918200
						CHANNELS 3 Xrotation Yrotation Zrotation
						End Site
						{
							OFFSET 0.000000 19.918203 0.000000
						}
					}
				}
			}
		}
	}
}
MOTION
Frames: 5
Frame Time: 0.033333
-0.667063 198.721878 2.409561 -3.900377 -1.264814 -1.703050 -1.683082 -0.770441 2.840025 -0.852686 -0.207437 0.875875 -0.852634 -0.193507 0.879019 7.007606 -0.371072 -0.420407 -1.229091 0.381048 -7.473448 0.000000 0.000000 -0.000000 0.000000 0.000000 -0.000000 0.000000 0.000000 -0.000000 2.025887 -14.905641 -8.879052 14.616992 -4.196700 -73.477522 0.000008 -30.415666 0.000010 8.972421 14.904349 -5.519449 -0.999444 -1.879534 -18.668097 1.069543 3.690838 -32.311682 0.381769 2.265030 -19.132234 0.000002 -0.000002 0.000000 1.501410 9.235567 7.855725 6.669783 19.010629 -1.427719 7.191185 20.955078 -1.854350 0.000001 -0.000002 0.000001 -0.230169 0.957574 -24.170467 1.183712 3.865073 -34.044272 0.050960 0.837903 -6.960616 0.000000 -0.000002 0.000002 0.706105 3.091484 -21.911829 1.472127 4.259895 -38.113480 0.150232 1.433333 -11.966504 0.000000 -0.000001 -0.000004 1.624399 5.272022 -22.498587 1.246859 -0.127816 -35.188411 0.027471 0.615801 -5.109732 0.000001 0.000002 0.000004 1.474312 2.920420 9.374491 11.725555 -3.019802 73.238240 -0.000004 34.139604 0.000020 31.895846 -14.414511 6.744074 0.767866 -3.194239 24.847368 1.527481 -4.353157 38.655780 0.066967 0.964686 -7.942018 -0.000001 0.000002 -0.000001 -8.342648 -7.793814 -7.957369 12.239137 -27.245703 1.438127 0.506453 -4.724574 -2.146697 -0.000002 -0.000001 0.000001 -0.388636 -0.038563 19.129676 0.885786 -3.401149 29.187714 0.239832 -1.813920 15.062150 0.000002 -0.000000 0.000001 0.704894 -3.123886 31.843011 1.251947 -3.985296 34.867282 0.570706 -2.763439 23.333019 -0.000001 0.000002 0.000004 0.694926 -3.281029 17.374647 1.731785 -4.596203 41.274051 0.765805 -3.177225 27.096832 -0.000002 -0.000001 0.000000 -0.016848 18.269218 9.365840 10.772011 -5.388918 3.980252 -7.990168 1.208943 -9.799223 -0.000010 0.000005 0.000002 -0.000000 -0.000000 0.000000 6.206549 -4.935834 -1.671155 6.150135 -6.362194 -0.956525 -7.829272 -0.651448 5.320037 -1.657256 0.000001 0.000000 -0.000000 -0.000001 -0.000000 
-0.532255 198.727539 2.363907 -3.923763 -1.199665 -1.711425 -1.683679 -0.729775 2.797980 -0.850477 -0.195611 0.864301 -0.850419 -0.182030 0.867245 6.956263 -0.379987 -0.438610 -1.218188 0.303525 -7.464127 0.000000 -0.000000 0.000000 0.000000 -0.000000 0.000000 0.000000 -0.000000 0.000000 2.026513 -14.862140 -8.884451 14.537159 -4.037575 -73.448460 -0.000024 -30.460045 -0.000041 9.014128 14.973993 -5.567245 -1.009265 -1.902001 -18.699429 1.071514 3.693962 -32.342295 0.381772 2.265015 -19.132244 -0.000000 -0.000001 0.000004 1.511838 9.251459 7.840949 6.672080 19.018319 -1.429406 7.185832 20.944804 -1.851397 -0.000001 0.000000 0.000001 -0.230376 0.957738 -24.177738 1.183880 3.865332 -34.046731 0.050876 0.837194 -6.954813 -0.000003 -0.000001 0.000001 0.704050 3.085742 -21.938650 1.483341 4.274119 -38.264362 0.149245 1.428653 -11.926731 -0.000000 -0.000001 -0.000001 1.621501 5.258071 -22.555021 1.248540 -0.125428 -35.212627 0.027578 0.616892 -5.118799 0.000000 0.000001 -0.000001 1.472087 2.938865 9.358153 11.680124 -2.970332 73.053169 0.000012 34.137846 -0.000015 31.865127 -14.453893 7.330839 0.708115 -3.063507 25.253745 1.568361 -4.403639 39.191339 0.066970 0.964681 -7.942029 -0.000004 0.000003 0.000004 -8.382855 -7.716462 -8.146367 12.188519 -27.136927 1.424460 0.475112 -4.640143 -2.146157 0.000001 0.000000 -0.000001 -0.396481 -0.016902 19.140193 0.884227 -3.398363 29.161404 0.222276 -1.747441 14.497469 -0.000002 0.000003 0.000004 0.739804 -3.183079 31.993917 1.262848 -4.000855 35.023830 0.599549 -2.829291 23.924233 -0.000001 -0.000000 -0.000001 0.709365 -3.324017 17.411336 1.731089 -4.595409 41.265425 0.765612 -3.176841 27.093267 -0.000001 0.000001 0.000001 -0.079752 18.233863 9.352958 10.910801 -5.427104 3.985525 -8.049359 1.206780 -9.742922 -0.000031 0.000002 0.000002 0.000000 0.000000 0.000000 6.285523 -4.964503 -1.694628 6.024582 -6.403620 -0.954864 -7.749218 -0.652529 5.357505 -1.623174 0.000005 0.000000 -0.000000 0.000000 0.000000 
-0.391247 198.730637 2.298582 -3.936419 -1.166111 -1.707999 -1.678388 -0.656426 2.759669 -0.846371 -0.173891 0.854543 -0.846308 -0.160662 0.857134 6.899887 -0.378102 -0.468868 -1.216806 0.300740 -7.539806 -0.000000 0.000000 0.000000 -0.000000 0.000000 0.000000 -0.000000 0.000000 0.000000 2.024227 -14.788394 -8.890299 14.429207 -3.909268 -73.405525 -0.000005 -30.457552 -0.000021 9.077500 14.977241 -5.658697 -1.022312 -1.931577 -18.741365 1.073290 3.696740 -32.369814 0.381767 2.265027 -19.132246 0.000001 0.000002 0.000004 1.519205 9.258763 7.810542 6.674387 19.026062 -1.431141 7.178546 20.930814 -1.847392 0.000001 -0.000000 -0.000001 -0.231015 0.957430 -24.190250 1.183571 3.864857 -34.042035 0.050739 0.836025 -6.945118 -0.000000 -0.000001 -0.000003 0.687259 3.043273 -21.981249 1.494560 4.288263 -38.414620 0.148748 1.426352 -11.907298 0.000001 0.000001 -0.000001 1.620534 5.244320 -22.647261 1.250106 -0.123222 -35.235057 0.027680 0.618095 -5.128678 0.000000 0.000003 0.000005 1.472623 2.975384 9.341978 11.656695 -2.899322 72.802822 0.000012 34.144765 -0.000009 31.781557 -14.439030 7.912256 0.625028 -2.889904 25.707707 1.630510 -4.478557 39.993923 0.066966 0.964683 -7.942024 0.000003 0.000001 -0.000001 -8.423990 -7.637874 -8.299695 12.144798 -27.042865 1.412633 0.445069 -4.559058 -2.145584 -0.000001 0.000000 0.000002 -0.404986 -0.010818 19.285968 0.882373 -3.395039 29.130026 0.206487 -1.685171 13.969903 0.000004 -0.000001 -0.000003 0.778454 -3.246683 32.091879 1.269712 -4.010632 35.122212 0.621344 -2.877838 24.361958 -0.000001 -0.000002 -0.000001 0.719937 -3.354789 17.446142 1.730426 -4.594657 41.257136 0.765312 -3.176256 27.087844 0.000001 0.000001 0.000001 -0.147622 18.183977 9.315498 11.052517 -5.415931 3.993857 -8.106218 1.204519 -9.687581 -0.000028 0.000001 -0.000001 0.000000 0.000001 0.000000 6.280044 -4.988288 -1.739198 6.014952 -6.410028 -0.962128 -7.713642 -0.657239 5.404773 -1.590090 0.000003 0.000001 0.000000 0.000001 0.000000 
-0.254047 198.730591 2.222040 -3.941862 -1.149842 -1.693974 -1.672246 -0.572744 2.716783 -0.842122 -0.149060 0.843150 -0.842061 -0.136195 0.845347 6.864937 -0.368553 -0.526783 -1.272196 0.342136 -7.686224 0.000000 0.000000 -0.000000 0.000000 0.000000 -0.000000 0.000000 0.000000 -0.000000 2.020594 -14.705539 -8.895807 14.346609 -3.740555 -73.350945 0.000006 -30.463569 0.000011 9.102986 14.933852 -5.773620 -1.041177 -1.973868 -18.803395 1.076324 3.701519 -32.416918 0.381779 2.265035 -19.132243 -0.000001 0.000001 -0.000001 1.521642 9.254899 7.768661 6.676609 19.033381 -1.432784 7.169529 20.913438 -1.842413 0.000005 -0.000001 -0.000002 -0.233452 0.954875 -24.224072 1.182319 3.863000 -34.023522 0.050552 0.834520 -6.932547 -0.000002 0.000002 -0.000001 0.658158 2.970313 -22.039998 1.507197 4.304109 -38.583254 0.149183 1.428356 -11.924324 0.000000 -0.000001 -0.000001 1.623325 5.234733 -22.778520 1.251271 -0.121571 -35.251798 0.027759 0.619003 -5.136259 -0.000001 -0.000000 -0.000000 1.474376 3.015115 9.328265 11.582843 -2.871722 72.562748 -0.000002 34.070650 0.000005 31.765922 -14.378095 8.308187 0.533538 -2.706591 26.147325 1.711753 -4.573355 41.023496 0.066965 0.964684 -7.942020 -0.000004 0.000001 -0.000000 -8.454792 -7.579289 -8.392956 12.117830 -26.984694 1.405391 0.423687 -4.501379 -2.145172 -0.000002 0.000003 0.000002 -0.412061 -0.020216 19.518334 0.881341 -3.393203 29.112698 0.195462 -1.640268 13.590227 0.000002 -0.000001 -0.000001 0.817607 -3.310217 32.161967 1.274000 -4.016693 35.183445 0.639186 -2.916874 24.714961 -0.000000 -0.000003 0.000001 0.725795 -3.371368 17.471026 1.730060 -4.594244 41.252635 0.765040 -3.175722 27.082827 -0.000002 -0.000005 0.000002 -0.221066 18.131038 9.268295 11.196881 -5.383972 3.994841 -8.161626 1.201847 -9.630060 -0.000025 0.000002 0.000001 -0.000000 0.000001 0.000000 6.214489 -5.011101 -1.797916 6.093055 -6.391268 -0.975530 -7.718661 -0.664809 5.456600 -1.547453 0.000003 -0.000000 -0.000000 0.000001 -0.000000 
-0.128253 198.730301 2.133149 -3.943789 -1.125961 -1.677164 -1.658708 -0.500650 2.667073 -0.835735 -0.127807 0.829108 -0.835687 -0.115314 0.830971 6.846760 -0.351801 -0.601878 -1.382805 0.430128 -7.887044 0.000000 0.000000 0.000000 0.000000 0.000000 0.000000 0.000000 0.000000 0.000000 2.015968 -14.630094 -8.899485 14.298474 -3.435955 -73.297567 0.000010 -30.529463 0.000002 9.056354 14.896871 -5.893948 -1.068494 -2.034689 -18.892518 1.081949 3.710347 -32.503955 0.381778 2.265034 -19.132236 -0.000000 -0.000001 -0.000002 1.518223 9.239691 7.722337 6.678471 19.039653 -1.434163 7.159288 20.893716 -1.836798 0.000001 0.000000 0.000000 -0.239007 0.948065 -24.289018 1.179884 3.859426 -33.987571 0.050368 0.832974 -6.919555 -0.000002 -0.000001 -0.000001 0.623986 2.885164 -22.109592 1.522122 4.322687 -38.781537 0.150599 1.435063 -11.981169 -0.000004 -0.000003 0.000002 1.630680 5.231983 -22.942549 1.251956 -0.120593 -35.261777 0.027803 0.619454 -5.140041 0.000002 0.000001 0.000004 1.475873 3.041333 9.320380 11.435360 -2.938531 72.375983 0.000013 33.932585 -0.000026 31.867299 -14.298718 8.451217 0.450128 -2.544878 26.497832 1.792330 -4.664072 42.024187 0.066968 0.964687 -7.942018 -0.000001 0.000001 -0.000004 -8.470330 -7.550038 -8.427736 12.108087 -26.963691 1.402773 0.413014 -4.472574 -2.144994 0.000003 -0.000003 -0.000000 -0.417332 -0.034113 19.744484 0.881173 -3.392888 29.109662 0.189509 -1.615477 13.380909 0.000002 0.000001 -0.000001 0.849054 -3.360318 32.169976 1.274579 -4.017493 35.191430 0.652034 -2.944589 24.966242 0.000000 0.000002 0.000000 0.728677 -3.379487 17.482802 1.729713 -4.593851 41.248253 0.764803 -3.175259 27.078585 0.000002 0.000001 -0.000001 -0.308051 18.087599 9.232521 11.343070 -5.373241 3.982995 -8.212094 1.198087 -9.567396 -0.000082 -0.000005 0.000005 0.000000 -0.000000 0.000000 6.126316 -5.036139 -1.857311 6.203125 -6.375251 -0.986203 -7.735527 -0.672004 5.504410 -1.491032 -0.000003 -0.000000 0.000000 -0.000000 -0.000000 
